<svg width="106" height="52" viewBox="0 0 106 52" fill="none" xmlns="http://www.w3.org/2000/svg">
<path d="M40.0425 12.1814H36.3731C36.3061 11.7072 36.1693 11.2861 35.9627 10.918C35.756 10.5443 35.4907 10.2263 35.1668 9.96419C34.8429 9.70204 34.4687 9.50124 34.0442 9.36179C33.6253 9.22235 33.1701 9.15263 32.6786 9.15263C31.7906 9.15263 31.0171 9.37295 30.3581 9.81359C29.699 10.2487 29.188 10.8845 28.825 11.7212C28.462 12.5523 28.2804 13.5619 28.2804 14.7499C28.2804 15.9714 28.462 16.9978 28.825 17.8288C29.1936 18.6599 29.7074 19.2874 30.3664 19.7113C31.0255 20.1353 31.7878 20.3472 32.6535 20.3472C33.1394 20.3472 33.589 20.2831 34.0023 20.1548C34.4212 20.0265 34.7926 19.8396 35.1165 19.5942C35.4404 19.3432 35.7085 19.0392 35.9208 18.6822C36.1386 18.3253 36.2894 17.9181 36.3731 17.4607L40.0425 17.4774C39.9476 18.2639 39.7102 19.0225 39.3304 19.7532C38.9562 20.4783 38.4508 21.1281 37.8141 21.7026C37.183 22.2715 36.429 22.7233 35.5522 23.058C34.6809 23.3871 33.6951 23.5516 32.5949 23.5516C31.0646 23.5516 29.6962 23.2058 28.4899 22.5142C27.2891 21.8225 26.3396 20.8213 25.6415 19.5105C24.949 18.1998 24.6027 16.6129 24.6027 14.7499C24.6027 12.8814 24.9546 11.2917 25.6583 9.98093C26.362 8.67015 27.317 7.67173 28.5234 6.98566C29.7298 6.29402 31.0869 5.9482 32.5949 5.9482C33.589 5.9482 34.5105 6.08764 35.3595 6.36653C36.214 6.64542 36.9708 7.0526 37.6298 7.58806C38.2888 8.11795 38.825 8.76776 39.2383 9.53749C39.6572 10.3072 39.9252 11.1885 40.0425 12.1814Z" fill="#5E6AD2"/>
<path d="M51.9512 11.1104C51.8842 10.4355 51.5966 9.9112 51.0883 9.53749C50.5801 9.16378 49.8903 8.97692 49.0191 8.97692C48.4271 8.97692 47.9272 9.06059 47.5195 9.22793C47.1118 9.38968 46.799 9.61558 46.5812 9.90562C46.369 10.1957 46.2629 10.5248 46.2629 10.8929C46.2517 11.1997 46.3159 11.4674 46.4555 11.6961C46.6007 11.9248 46.799 12.1228 47.0503 12.2901C47.3017 12.4519 47.5921 12.5941 47.9216 12.7168C48.2511 12.834 48.603 12.9344 48.9772 13.018L50.5186 13.3862C51.267 13.5535 51.954 13.7766 52.5795 14.0555C53.205 14.3344 53.7468 14.6774 54.2048 15.0846C54.6627 15.4918 55.0174 15.9714 55.2687 16.5236C55.5256 17.0758 55.6569 17.7089 55.6625 18.4229C55.6569 19.4715 55.3888 20.3807 54.8582 21.1504C54.3332 21.9146 53.5737 22.5086 52.5795 22.9325C51.591 23.3508 50.3986 23.56 49.0023 23.56C47.6172 23.56 46.4109 23.3481 45.3832 22.9241C44.3611 22.5002 43.5625 21.8727 42.9872 21.0416C42.4176 20.205 42.1188 19.1703 42.0908 17.9376H45.601C45.6401 18.5121 45.8049 18.9918 46.0953 19.3767C46.3913 19.756 46.785 20.0432 47.2765 20.2384C47.7736 20.4281 48.3349 20.5229 48.9604 20.5229C49.5748 20.5229 50.1081 20.4337 50.5605 20.2552C51.0185 20.0767 51.3732 19.8285 51.6245 19.5105C51.8758 19.1926 52.0015 18.8273 52.0015 18.4145C52.0015 18.0296 51.887 17.7061 51.658 17.444C51.4346 17.1818 51.1051 16.9587 50.6694 16.7746C50.2394 16.5906 49.7116 16.4232 49.0861 16.2726L47.2179 15.8041C45.7714 15.4527 44.6292 14.9033 43.7915 14.1559C42.9537 13.4085 42.5376 12.4017 42.5432 11.1355C42.5376 10.0981 42.8141 9.19167 43.3726 8.41636C43.9367 7.64105 44.7102 7.03586 45.6932 6.6008C46.6761 6.16573 47.7931 5.9482 49.0442 5.9482C50.3176 5.9482 51.429 6.16573 52.3785 6.6008C53.3335 7.03586 54.0763 7.64105 54.6069 8.41636C55.1375 9.19167 55.4111 10.0897 55.4279 11.1104H51.9512Z" fill="#5E6AD2"/>
<path d="M66.2873 17.8456V10.4662H69.8561V23.3174H66.4297V20.9831H66.2957C66.0052 21.7361 65.5221 22.3413 64.8464 22.7986C64.1761 23.256 63.3579 23.4847 62.3917 23.4847C61.5316 23.4847 60.7749 23.2895 60.1214 22.899C59.468 22.5086 58.9569 21.9536 58.5883 21.2341C58.2253 20.5145 58.041 19.6528 58.0354 18.6488V10.4662H61.6042V18.0129C61.6098 18.7715 61.8137 19.3711 62.2158 19.8117C62.6179 20.2524 63.1569 20.4727 63.8327 20.4727C64.2627 20.4727 64.6648 20.3751 65.039 20.1799C65.4132 19.9791 65.7148 19.6835 65.9438 19.293C66.1784 18.9026 66.2929 18.4201 66.2873 17.8456Z" fill="#5E6AD2"/>
<path d="M72.7108 23.3174V10.4662H76.1121V12.7336H76.2629C76.5309 11.9806 76.9777 11.3865 77.6033 10.9515C78.2288 10.5164 78.9772 10.2989 79.8484 10.2989C80.7309 10.2989 81.4821 10.5192 82.102 10.9598C82.7219 11.3949 83.1352 11.9861 83.3419 12.7336H83.4759C83.7384 11.9973 84.2132 11.4088 84.9001 10.9682C85.5927 10.522 86.4109 10.2989 87.3547 10.2989C88.5555 10.2989 89.5301 10.6809 90.2785 11.4451C91.0325 12.2037 91.4095 13.2802 91.4095 14.6746V23.3174H87.849V15.3774C87.849 14.6635 87.6591 14.128 87.2793 13.771C86.8996 13.414 86.4248 13.2356 85.8552 13.2356C85.2073 13.2356 84.7018 13.4419 84.3388 13.8547C83.9758 14.2619 83.7943 14.8001 83.7943 15.4694V23.3174H80.3343V15.3021C80.3343 14.6718 80.1528 14.1698 79.7898 13.7961C79.4324 13.4224 78.9604 13.2356 78.374 13.2356C77.9775 13.2356 77.62 13.336 77.3017 13.5368C76.9889 13.732 76.7404 14.0081 76.5561 14.3651C76.3718 14.7165 76.2796 15.1292 76.2796 15.6033V23.3174H72.7108Z" fill="#5E6AD2"/>
<path d="M100.093 23.5684C98.7691 23.5684 97.6298 23.3006 96.6748 22.7652C95.7253 22.2241 94.9937 21.46 94.4798 20.4727C93.966 19.4799 93.7091 18.3057 93.7091 16.9503C93.7091 15.6284 93.966 14.4682 94.4798 13.4698C94.9937 12.4714 95.7169 11.6933 96.6496 11.1355C97.5879 10.5777 98.6882 10.2989 99.9504 10.2989C100.799 10.2989 101.59 10.4355 102.321 10.7088C103.058 10.9766 103.701 11.3809 104.248 11.922C104.801 12.463 105.231 13.1435 105.538 13.9635C105.845 14.7778 105.999 15.7316 105.999 16.8248V17.8037H95.1333V15.595H102.64C102.64 15.0818 102.528 14.6272 102.304 14.2312C102.081 13.8352 101.771 13.5256 101.375 13.3025C100.984 13.0738 100.528 12.9595 100.009 12.9595C99.4673 12.9595 98.987 13.085 98.5681 13.336C98.1548 13.5814 97.8309 13.9133 97.5963 14.3316C97.3617 14.7443 97.2416 15.2045 97.2361 15.7121V17.8121C97.2361 18.448 97.3533 18.9974 97.5879 19.4603C97.8281 19.9233 98.166 20.2803 98.6016 20.5313C99.0372 20.7823 99.5538 20.9078 100.151 20.9078C100.548 20.9078 100.911 20.852 101.241 20.7404C101.57 20.6289 101.852 20.4616 102.087 20.2384C102.321 20.0153 102.5 19.742 102.623 19.4185L105.924 19.636C105.756 20.4281 105.413 21.1197 104.893 21.711C104.379 22.2966 103.715 22.754 102.899 23.0831C102.089 23.4066 101.154 23.5684 100.093 23.5684Z" fill="#5E6AD2"/>
<path fill-rule="evenodd" clip-rule="evenodd" d="M3.73285 18.4066C4.63759 10.0955 11.6872 3.62791 20.2482 3.62791V0C9.06491 0 0.000452878 9.05383 0.000452878 20.2206V22.0345H19.2943V18.4066H3.73285Z" fill="#5E6AD2"/>
<path fill-rule="evenodd" clip-rule="evenodd" d="M36.7631 33.5934C35.8583 41.9045 28.8087 48.3721 20.2477 48.3721C11.0731 48.3721 3.63426 40.9441 3.63426 31.7794H0C0 42.9462 9.06446 52 20.2477 52C31.431 52 40.4955 42.9462 40.4955 31.7794V29.9655H28.8963V33.5934H36.7631Z" fill="#5E6AD2"/>
<path fill-rule="evenodd" clip-rule="evenodd" d="M19.2736 22.5185C15.1468 22.5185 11.8 25.8598 11.8 29.9832C11.8 34.1066 15.1468 37.4479 19.2736 37.4479C23.4003 37.4479 26.7471 34.1066 26.7471 29.9832H30.3814C30.3814 36.1087 25.409 41.0758 19.2736 41.0758C13.1381 41.0758 8.16571 36.1087 8.16571 29.9832C8.16571 23.8577 13.1381 18.8906 19.2736 18.8906V22.5185Z" fill="#5E6AD2"/>
<path fill-rule="evenodd" clip-rule="evenodd" d="M19.2765 31.2458C19.9732 31.2458 20.5398 30.6815 20.5398 29.9831C20.5398 29.2847 19.9732 28.7203 19.2765 28.7203C18.5798 28.7203 18.0132 29.2847 18.0132 29.9831C18.0132 30.6815 18.5798 31.2458 19.2765 31.2458ZM19.2765 33.6644C21.3123 33.6644 22.9626 32.0162 22.9626 29.9831C22.9626 27.9499 21.3123 26.3017 19.2765 26.3017C17.2407 26.3017 15.5904 27.9499 15.5904 29.9831C15.5904 32.0162 17.2407 33.6644 19.2765 33.6644Z" fill="#5E6AD2"/>
<path d="M47.5183 31.9391C47.5008 31.7473 47.4232 31.5983 47.2853 31.492C47.1492 31.3839 46.9546 31.3299 46.7015 31.3299C46.5339 31.3299 46.3943 31.3517 46.2826 31.3952C46.1709 31.4388 46.0871 31.499 46.0313 31.5757C45.9754 31.6506 45.9466 31.7369 45.9449 31.8345C45.9414 31.9147 45.9571 31.9853 45.992 32.0463C46.0287 32.1073 46.081 32.1613 46.1491 32.2084C46.2189 32.2537 46.3027 32.2938 46.4004 32.3287C46.4982 32.3635 46.6081 32.394 46.7303 32.4202L47.191 32.5247C47.4563 32.5823 47.6902 32.659 47.8927 32.7548C48.0969 32.8507 48.2679 32.9649 48.4058 33.0973C48.5454 33.2298 48.651 33.3823 48.7226 33.5549C48.7941 33.7275 48.8308 33.9209 48.8325 34.1353C48.8308 34.4735 48.7453 34.7637 48.576 35.006C48.4067 35.2483 48.1632 35.4339 47.8455 35.5629C47.5296 35.6919 47.1483 35.7564 46.7015 35.7564C46.2529 35.7564 45.862 35.6893 45.5286 35.555C45.1953 35.4208 44.9361 35.2169 44.7511 34.9432C44.5661 34.6696 44.471 34.3236 44.4657 33.9052H45.7067C45.7171 34.0778 45.7634 34.2216 45.8454 34.3367C45.9274 34.4517 46.04 34.5388 46.1831 34.5981C46.328 34.6574 46.4955 34.687 46.6858 34.687C46.8603 34.687 47.0087 34.6635 47.1308 34.6164C47.2547 34.5693 47.3499 34.504 47.4162 34.4203C47.4825 34.3367 47.5166 34.2408 47.5183 34.1327C47.5166 34.0316 47.4851 33.9453 47.424 33.8739C47.363 33.8007 47.2687 33.7379 47.1413 33.6856C47.0156 33.6316 46.8551 33.5819 46.6596 33.5366L46.0993 33.4059C45.6351 33.2995 45.2694 33.1278 45.0024 32.8908C44.7354 32.652 44.6027 32.3295 44.6045 31.9234C44.6027 31.5922 44.6917 31.302 44.8715 31.0527C45.0513 30.8035 45.3 30.6091 45.6176 30.4697C45.9353 30.3302 46.2974 30.2605 46.7041 30.2605C47.1195 30.2605 47.4799 30.3311 47.7853 30.4723C48.0925 30.6117 48.3307 30.8078 48.5 31.0606C48.6693 31.3133 48.7557 31.6062 48.7592 31.9391H47.5183Z" fill="#5E6AD2"/>
<path d="M55.7901 35.7642C55.3695 35.7642 55.0064 35.6814 54.701 35.5158C54.3973 35.3485 54.1634 35.1106 53.9994 34.802C53.8371 34.4918 53.7559 34.1231 53.7559 33.6961C53.7559 33.2812 53.8379 32.9187 54.002 32.6084C54.1661 32.2964 54.3973 32.0541 54.6958 31.8816C54.9942 31.7073 55.3459 31.6201 55.7508 31.6201C56.037 31.6201 56.2988 31.6646 56.5362 31.7534C56.7736 31.8423 56.9786 31.9739 57.1514 32.1482C57.3242 32.3226 57.4586 32.5378 57.5546 32.794C57.6506 33.0485 57.6986 33.3405 57.6986 33.6699V33.9889H54.2036V33.2464H56.5074C56.5057 33.1104 56.4734 32.9893 56.4105 32.8829C56.3477 32.7766 56.2613 32.6938 56.1514 32.6346C56.0432 32.5736 55.9184 32.543 55.777 32.543C55.6339 32.543 55.5056 32.5753 55.3921 32.6398C55.2787 32.7025 55.1888 32.7888 55.1225 32.8986C55.0562 33.0067 55.0213 33.1296 55.0178 33.2673V34.0229C55.0178 34.1867 55.0501 34.3306 55.1146 34.4543C55.1792 34.5763 55.2708 34.6713 55.3895 34.7393C55.5082 34.8073 55.6496 34.8413 55.8136 34.8413C55.9271 34.8413 56.0301 34.8256 56.1226 34.7942C56.2151 34.7628 56.2945 34.7166 56.3608 34.6556C56.4271 34.5946 56.4769 34.5197 56.51 34.4308L57.6855 34.4648C57.6366 34.728 57.5293 34.9572 57.3635 35.1524C57.1994 35.3459 56.9839 35.4967 56.7168 35.6047C56.4498 35.711 56.1409 35.7642 55.7901 35.7642Z" fill="#5E6AD2"/>
<path d="M64.6529 35.7642C64.2288 35.7642 63.8649 35.6771 63.5612 35.5028C63.2592 35.3284 63.0271 35.0862 62.8648 34.7759C62.7025 34.4639 62.6213 34.1031 62.6213 33.6935C62.6213 33.2821 62.7025 32.9213 62.8648 32.611C63.0289 32.299 63.2618 32.0559 63.5638 31.8816C63.8675 31.7073 64.2296 31.6201 64.6503 31.6201C65.022 31.6201 65.3458 31.6872 65.6215 31.8214C65.899 31.9556 66.1155 32.1456 66.2708 32.3914C66.4279 32.6354 66.5108 32.9222 66.5195 33.2516H65.3231C65.2986 33.0459 65.2288 32.8847 65.1136 32.7679C65.0002 32.6511 64.8518 32.5927 64.6686 32.5927C64.5202 32.5927 64.3902 32.6346 64.2785 32.7182C64.1668 32.8001 64.0795 32.9222 64.0167 33.0843C63.9556 33.2446 63.9251 33.4433 63.9251 33.6804C63.9251 33.9174 63.9556 34.1179 64.0167 34.2817C64.0795 34.4438 64.1668 34.5667 64.2785 34.6504C64.3902 34.7323 64.5202 34.7733 64.6686 34.7733C64.7873 34.7733 64.892 34.748 64.9827 34.6975C65.0752 34.6469 65.1512 34.5728 65.2105 34.4752C65.2698 34.3759 65.3074 34.2556 65.3231 34.1144H66.5195C66.5073 34.4456 66.4244 34.7349 66.2708 34.9825C66.1189 35.23 65.9051 35.4226 65.6294 35.5603C65.3554 35.6962 65.0299 35.7642 64.6529 35.7642Z" fill="#5E6AD2"/>
<path d="M74.1924 33.9549V31.6724H75.47V35.6884H74.25V34.9406H74.2081C74.1191 35.1864 73.9673 35.3816 73.7526 35.5263C73.5397 35.6692 73.2822 35.7407 72.9803 35.7407C72.7063 35.7407 72.4654 35.6779 72.2577 35.5524C72.05 35.4269 71.8886 35.2518 71.7734 35.0269C71.6582 34.8003 71.5997 34.5354 71.598 34.2321V31.6724H72.8782V33.9811C72.8799 34.1989 72.9375 34.3706 73.051 34.4961C73.1644 34.6216 73.3189 34.6844 73.5144 34.6844C73.6418 34.6844 73.7561 34.6565 73.8573 34.6007C73.9603 34.5432 74.0414 34.4604 74.1008 34.3523C74.1619 34.2425 74.1924 34.1101 74.1924 33.9549Z" fill="#5E6AD2"/>
<path d="M80.7082 35.6884V31.6724H81.9517V32.4045H81.9936C82.0669 32.1395 82.1865 31.9426 82.3523 31.8136C82.5181 31.6829 82.7109 31.6175 82.9309 31.6175C82.9902 31.6175 83.0513 31.6218 83.1141 31.6306C83.1769 31.6375 83.2354 31.6489 83.2895 31.6645V32.7757C83.2284 32.7548 83.1481 32.7383 83.0487 32.7261C82.9509 32.7139 82.8637 32.7078 82.7869 32.7078C82.635 32.7078 82.498 32.7418 82.3758 32.8097C82.2554 32.876 82.1603 32.9692 82.0905 33.0895C82.0224 33.208 81.9884 33.3475 81.9884 33.5078V35.6884H80.7082Z" fill="#5E6AD2"/>
<path d="M88.2345 35.6884V31.6724H89.5147V35.6884H88.2345ZM88.8759 31.2044C88.6961 31.2044 88.5417 31.1451 88.4125 31.0266C88.2834 30.9063 88.2188 30.7616 88.2188 30.5926C88.2188 30.4252 88.2834 30.2823 88.4125 30.1638C88.5417 30.0435 88.6961 29.9834 88.8759 29.9834C89.0574 29.9834 89.2119 30.0435 89.3393 30.1638C89.4684 30.2823 89.533 30.4252 89.533 30.5926C89.533 30.7616 89.4684 30.9063 89.3393 31.0266C89.2119 31.1451 89.0574 31.2044 88.8759 31.2044Z" fill="#5E6AD2"/>
<path d="M97.0227 31.6724V32.6136H94.4858V31.6724H97.0227ZM95.0173 30.7102H96.2975V34.4255C96.2975 34.504 96.3097 34.5676 96.3342 34.6164C96.3603 34.6635 96.3979 34.6975 96.4467 34.7184C96.4956 34.7376 96.5541 34.7471 96.6221 34.7471C96.671 34.7471 96.7225 34.7428 96.7766 34.7341C96.8324 34.7236 96.8743 34.7149 96.9022 34.7079L97.096 35.6309C97.0349 35.6483 96.9485 35.6701 96.8368 35.6962C96.7269 35.7224 96.5951 35.7389 96.4415 35.7459C96.1413 35.7599 95.8839 35.725 95.6692 35.6413C95.4563 35.5559 95.2931 35.4234 95.1796 35.2439C95.0679 35.0644 95.0138 34.8386 95.0173 34.5667V30.7102Z" fill="#5E6AD2"/>
<path d="M102.882 37.1944C102.728 37.1944 102.584 37.1822 102.447 37.1578C102.311 37.1351 102.194 37.1046 102.097 37.0663L102.379 36.1381C102.505 36.1799 102.618 36.2043 102.72 36.2113C102.823 36.2183 102.911 36.2017 102.984 36.1616C103.059 36.1233 103.117 36.0544 103.157 35.9551L103.207 35.8348L101.777 31.6724H103.118L103.859 34.538H103.9L104.652 31.6724H106L104.484 36.0727C104.411 36.2924 104.307 36.4858 104.173 36.6532C104.04 36.8222 103.868 36.9547 103.657 37.0506C103.447 37.1465 103.189 37.1944 102.882 37.1944Z" fill="#5E6AD2"/>
<path d="M44.6202 44.5236V39.1689H48.3587V40.22H45.9161V41.3181H48.1676V42.3718H45.9161V43.4725H48.3587V44.5236H44.6202Z" fill="#5E6AD2"/>
<path d="M54.6827 40.5076L55.345 41.8306L56.0309 40.5076H57.3216L56.1985 42.5156L57.3635 44.5236H56.0833L55.345 43.1901L54.6251 44.5236H53.3266L54.4942 42.5156L53.3842 40.5076H54.6827Z" fill="#5E6AD2"/>
<path d="M62.3294 46.0296V40.5076H63.5965V41.1952H63.6358C63.6881 41.0732 63.7623 40.9555 63.8583 40.8423C63.9561 40.729 64.08 40.6366 64.2301 40.5651C64.3819 40.4919 64.5634 40.4553 64.7746 40.4553C65.0539 40.4553 65.3148 40.5285 65.5574 40.6749C65.8017 40.8213 65.9989 41.0471 66.149 41.3521C66.2991 41.6571 66.3742 42.0458 66.3742 42.5182C66.3742 42.9731 66.3018 43.354 66.1569 43.6608C66.0138 43.9675 65.8201 44.1976 65.5757 44.351C65.3331 44.5044 65.0635 44.5811 64.7668 44.5811C64.5643 44.5811 64.3889 44.548 64.2405 44.4817C64.0922 44.4155 63.9674 44.3284 63.8662 44.2203C63.7667 44.1122 63.6899 43.9963 63.6358 43.8725H63.6096V46.0296H62.3294ZM63.5834 42.5156C63.5834 42.7317 63.6122 42.92 63.6698 43.0803C63.7292 43.2407 63.8138 43.3653 63.9238 43.4542C64.0355 43.5414 64.169 43.5849 64.3243 43.5849C64.4814 43.5849 64.6149 43.5414 64.7249 43.4542C64.8348 43.3653 64.9177 43.2407 64.9736 43.0803C65.0312 42.92 65.06 42.7317 65.06 42.5156C65.06 42.2994 65.0312 42.1121 64.9736 41.9534C64.9177 41.7948 64.8348 41.6719 64.7249 41.5848C64.6167 41.4976 64.4831 41.4541 64.3243 41.4541C64.1672 41.4541 64.0337 41.4968 63.9238 41.5822C63.8138 41.6676 63.7292 41.7896 63.6698 41.9482C63.6122 42.1068 63.5834 42.296 63.5834 42.5156Z" fill="#5E6AD2"/>
<path d="M73.3481 44.5994C72.9275 44.5994 72.5645 44.5166 72.259 44.351C71.9553 44.1837 71.7215 43.9458 71.5574 43.6372C71.3951 43.327 71.3139 42.9583 71.3139 42.5313C71.3139 42.1164 71.396 41.7539 71.56 41.4436C71.7241 41.1316 71.9553 40.8893 72.2538 40.7167C72.5522 40.5424 72.9039 40.4553 73.3088 40.4553C73.5951 40.4553 73.8569 40.4997 74.0942 40.5886C74.3316 40.6775 74.5367 40.8091 74.7095 40.9834C74.8823 41.1577 75.0166 41.373 75.1126 41.6292C75.2086 41.8837 75.2566 42.1757 75.2566 42.5051V42.8241H71.7616V42.0816H74.0654C74.0637 41.9456 74.0314 41.8245 73.9686 41.7181C73.9057 41.6118 73.8194 41.529 73.7094 41.4697C73.6012 41.4087 73.4764 41.3782 73.335 41.3782C73.1919 41.3782 73.0636 41.4105 72.9502 41.475C72.8367 41.5377 72.7468 41.624 72.6805 41.7338C72.6142 41.8419 72.5793 41.9648 72.5758 42.1025V42.8581C72.5758 43.0219 72.6081 43.1657 72.6727 43.2895C72.7373 43.4115 72.8289 43.5065 72.9476 43.5745C73.0662 43.6425 73.2076 43.6764 73.3717 43.6764C73.4851 43.6764 73.5881 43.6608 73.6806 43.6294C73.7731 43.598 73.8525 43.5518 73.9188 43.4908C73.9852 43.4298 74.0349 43.3549 74.0681 43.266L75.2435 43.3C75.1947 43.5632 75.0873 43.7924 74.9215 43.9876C74.7575 44.1811 74.5419 44.3318 74.2749 44.4399C74.0078 44.5462 73.6989 44.5994 73.3481 44.5994Z" fill="#5E6AD2"/>
<path d="M80.3338 44.5236V40.5076H81.5774V41.2397H81.6192C81.6926 40.9747 81.8121 40.7778 81.9779 40.6488C82.1437 40.518 82.3366 40.4527 82.5565 40.4527C82.6158 40.4527 82.6769 40.457 82.7397 40.4657C82.8026 40.4727 82.861 40.4841 82.9151 40.4997V41.6109C82.8541 41.59 82.7738 41.5735 82.6743 41.5613C82.5766 41.5491 82.4893 41.543 82.4125 41.543C82.2606 41.543 82.1236 41.5769 82.0015 41.6449C81.881 41.7112 81.7859 41.8044 81.7161 41.9247C81.648 42.0432 81.614 42.1827 81.614 42.343V44.5236H80.3338Z" fill="#5E6AD2"/>
<path d="M90.3171 40.5076V41.4488H87.7803V40.5076H90.3171ZM88.3117 39.5454H89.5919V43.2607C89.5919 43.3392 89.6041 43.4028 89.6286 43.4516C89.6548 43.4987 89.6923 43.5326 89.7411 43.5536C89.79 43.5727 89.8485 43.5823 89.9165 43.5823C89.9654 43.5823 90.0169 43.578 90.071 43.5693C90.1269 43.5588 90.1688 43.5501 90.1967 43.5431L90.3904 44.4661C90.3293 44.4835 90.2429 44.5053 90.1312 44.5314C90.0213 44.5576 89.8895 44.5741 89.7359 44.5811C89.4357 44.595 89.1783 44.5602 88.9636 44.4765C88.7507 44.3911 88.5875 44.2586 88.474 44.0791C88.3623 43.8996 88.3082 43.6738 88.3117 43.4019V39.5454Z" fill="#5E6AD2"/>
</svg>
